<svg id="Layer_1" data-name="Layer 1" xmlns="http://www.w3.org/2000/svg" width="48" height="48" viewBox="0 0 48 48"><title>Artboard 1</title><path d="M19.2,16.1c1.6,2.3,18,14.3,21.1,19.5s.2,9-1.4,10.1-7.1,2.4-10.8-2.1c-5.3-6.4-9-23.2-11.1-26.2" fill="none" stroke="#fff" stroke-linecap="round" stroke-linejoin="round" stroke-width="0.68"/><path d="M17.9,16.1c1.4,1.9,10.2,13,14.6,18.1s6.1,8.1,4.4,10.2-6.8-.8-9.3-5.3C23.7,32.2,18.5,19,16.7,16.6" fill="none" stroke="#fff" stroke-linecap="round" stroke-linejoin="round" stroke-width="0.68"/><path d="M18.1,15.1c1.4,1.8,11.1,12,16,16.6S42.5,41,38.7,44s-6.9-2.6-9.4-7C25.5,30,19,18.4,17.2,16" fill="none" stroke="#fff" stroke-linecap="round" stroke-linejoin="round" stroke-width="0.68"/><path d="M3.8,7.2H21.2a1.1,1.1,0,0,1,1.1,1.1V9.7a1.1,1.1,0,0,1-1.1,1.1H3.8a.5.5,0,0,1-.5-.5V7.7a.5.5,0,0,1,.5-.5Z" transform="translate(12.6 24.6) rotate(-124.6)" fill="#fff"/></svg>