<svg xmlns="http://www.w3.org/2000/svg" width="48" height="48" viewBox="0 0 48 48"><path fill="#fff" d="M24 0a24 24 0 0 0-8.7 46.4 21 21 0 0 1 .1-7.5l2.7-11.6a9 9 0 0 1-.2-6.2c1.7-4.4 6.7-4.1 7-.2.2 2.1-1.4 6.2-1.9 8.4a3.2 3.2 0 0 0 2.8 4 6.9 6.9 0 0 0 6.3-4 13.8 13.8 0 0 0 .9-10.2 9.2 9.2 0 0 0-8.7-5.9c-4.4-.1-8.9 2-10.5 7.2-.9 2.8-.3 6.4 1.1 7.7s.6.5.4 1.2a14 14 0 0 1-.9 3.1c-.8.4-2.9-1.5-3.5-2.4-2.3-3.2-2.5-8.1-1.4-11.6A13.5 13.5 0 0 1 18 9.9c7.3-2.8 16.4-.8 20 7 1.3 2.7 1.4 6.3.8 9.5s-3.5 8.3-7.5 10.1-6.3 1.3-8.8-.6a4.7 4.7 0 0 1-1.1-1.3 52.9 52.9 0 0 1-1.5 5.7 20.8 20.8 0 0 1-3.2 6.6A25.3 25.3 0 0 0 24 48a24 24 0 0 0 0-48z"/></svg>