<svg xmlns="http://www.w3.org/2000/svg" width="48" height="48" viewBox="0 0 48 48"><path fill="none" stroke="#fff" stroke-linecap="round" stroke-miterlimit="10" d="M4.6 1.3h13.8M5.2 3.7l2-2.4-2-2.6m12.6 5l-2.1-2.4 2-2.6m-6.1 9.4V-5.7M14 7.5l-2.4-2.1-2.6 2m-.6-9.3l6.1 6.1m0-6.1L8.4 4.2M30.6 4h13.8M31.2 6.4L33.3 4l-2.1-2.5m12.6 4.9l-2-2.4 2-2.5m-6.2 9.4V-3M40 10.3l-2.4-2.1-2.6 2m5-12.6L37.6-.3l-2.6-2M34.5.9L40.6 7m0-6.1L34.5 7M5.2 51.8l2-2.4-2-2.6m12.6 5l-2.1-2.4 2-2.6m-6.1 9.4V42.4m2.4.6l-2.4 2L9 43m-.6 3.2l6.1 6.1m0-6.1l-6.1 6.1M37.6 59V45.1m2.4.7l-2.4 2-2.6-2M-3.9 20.5H9.9m-.6 2.4l-2-2.3 2-2.6m-6.2 9.4V13.5m2.4 13.3l-2.4-2.1-2.6 2m5-12.6l-2.4 2.1-2.6-2M0 17.4l6.1 6.1m0-6.1L0 23.5m20.6 5.9h13.9m-13.3 2.4l2.1-2.3-2-2.6m12.6 4.9l-2.1-2.3 2-2.6m-6.2 9.4V22.4M30 35.7l-2.3-2.1-2.6 2M30 23l-2.3 2.1-2.6-2m-.6 3.2l6.1 6.1m0-6.1l-6.1 6.1"/><circle cx="23.4" cy="7.6" r="1.1" fill="none" stroke="#fff" stroke-miterlimit="10"/><circle cx="40" cy="34.7" r="1.1" fill="none" stroke="#fff" stroke-miterlimit="10"/><circle cx="45.7" cy="44.1" r="1.1" fill="none" stroke="#fff" stroke-miterlimit="10"/><circle cx="37.8" cy="17.2" r="1.1" fill="none" stroke="#fff" stroke-miterlimit="10"/><circle cx="17.8" cy="19.1" r="1.1" fill="none" stroke="#fff" stroke-miterlimit="10"/><circle cx="2" cy="7.6" r="1.1" fill="none" stroke="#fff" stroke-miterlimit="10"/><circle cx="25.6" cy="43" r="1.1" fill="none" stroke="#fff" stroke-miterlimit="10"/><circle cx="11.1" cy="31.8" r="1.1" fill="none" stroke="#fff" stroke-miterlimit="10"/><circle cx="2" cy="41.3" r="1.1" fill="none" stroke="#fff" stroke-miterlimit="10"/><path fill="none" stroke="#fff" stroke-linecap="round" stroke-miterlimit="10" d="M44.2 20.5H58m-13.2 2.4l2.1-2.3-2.1-2.6m3.3-.6l6.1 6.1m0-6.1l-6.1 6.1"/></svg>