<svg xmlns="http://www.w3.org/2000/svg" width="48" height="48" viewBox="0 0 48 48"><path fill="none" stroke="#000" stroke-linecap="round" stroke-linejoin="round" stroke-width=".68" d="M19.2 16.1c1.6 2.3 18 14.3 21.1 19.5s.2 9-1.4 10.1-7.1 2.4-10.8-2.1c-5.3-6.4-9-23.2-11.1-26.2"/><path fill="none" stroke="#000" stroke-linecap="round" stroke-linejoin="round" stroke-width=".68" d="M17.9 16.1c1.4 1.9 10.2 13 14.6 18.1s6.1 8.1 4.4 10.2-6.8-.8-9.3-5.3c-3.9-6.9-9.1-20.1-10.9-22.5"/><path fill="none" stroke="#000" stroke-linecap="round" stroke-linejoin="round" stroke-width=".68" d="M18.1 15.1c1.4 1.8 11.1 12 16 16.6S42.5 41 38.7 44s-6.9-2.6-9.4-7C25.5 30 19 18.4 17.2 16"/><path d="M16.369 17.384L6.489 3.06a1.1 1.1 0 0 1 .28-1.53L7.922.736a1.1 1.1 0 0 1 1.53.28l9.88 14.323a.5.5 0 0 1-.128.696l-2.14 1.476a.5.5 0 0 1-.695-.127z"/></svg>